<?xml version="1.0" encoding="UTF-8" standalone="no"?>
<!-- Created with Inkscape (http://www.inkscape.org/) -->

<svg
   xmlns:dc="http://purl.org/dc/elements/1.1/"
   xmlns:cc="http://creativecommons.org/ns#"
   xmlns:rdf="http://www.w3.org/1999/02/22-rdf-syntax-ns#"
   xmlns:svg="http://www.w3.org/2000/svg"
   xmlns="http://www.w3.org/2000/svg"
   xmlns:sodipodi="http://sodipodi.sourceforge.net/DTD/sodipodi-0.dtd"
   xmlns:inkscape="http://www.inkscape.org/namespaces/inkscape"
   width="400"
   height="400"
   viewBox="0 0 105.83333 105.83334"
   version="1.1"
   id="svg6046"
   inkscape:version="0.92.0 r15299"
   sodipodi:docname="sm_conv.svg">
  <defs
     id="defs6040" />
  <sodipodi:namedview
     id="base"
     pagecolor="#ffffff"
     bordercolor="#666666"
     borderopacity="1.0"
     inkscape:pageopacity="0.0"
     inkscape:pageshadow="2"
     inkscape:zoom="0.49497475"
     inkscape:cx="145.34215"
     inkscape:cy="575.89992"
     inkscape:document-units="mm"
     inkscape:current-layer="layer1"
     showgrid="false"
     units="px"
     inkscape:window-width="1920"
     inkscape:window-height="1018"
     inkscape:window-x="1912"
     inkscape:window-y="390"
     inkscape:window-maximized="1" />
  <metadata
     id="metadata6043">
    <rdf:RDF>
      <cc:Work
         rdf:about="">
        <dc:format>image/svg+xml</dc:format>
        <dc:type
           rdf:resource="http://purl.org/dc/dcmitype/StillImage" />
        <dc:title></dc:title>
      </cc:Work>
    </rdf:RDF>
  </metadata>
  <g
     inkscape:label="Layer 1"
     inkscape:groupmode="layer"
     id="layer1"
     transform="translate(0,-191.16665)">
    <g
       id="g5818"
       transform="matrix(0.88990032,0,0,0.88990032,-46.333318,-1.8939195)">
      <path
         inkscape:connector-curvature="0"
         id="path5806"
         d="m 69.358777,287.48465 h 72.468963 c 6.57717,0 11.87214,-4.93938 11.87214,-11.07477 0,-6.13538 -5.29497,-11.07478 -11.87214,-11.07478 H 69.358777 Z"
         style="display:inline;opacity:1;fill:#607d8b;fill-opacity:1;stroke:#424242;stroke-width:1.5948627;stroke-miterlimit:1.29999995;stroke-dasharray:none;stroke-opacity:1" />
      <path
         style="display:inline;opacity:1;fill:#fafafa;fill-opacity:1;stroke:none;stroke-width:1.82153249;stroke-miterlimit:1.29999995;stroke-dasharray:none;stroke-opacity:1"
         d="m 152.92064,276.34519 a 10.24612,10.24612 0 0 1 -10.24612,10.24612 10.24612,10.24612 0 0 1 -10.24613,-10.24612 10.24612,10.24612 0 0 1 10.24613,-10.24612 10.24612,10.24612 0 0 1 10.24612,10.24612 z"
         id="path8121-8-3"
         inkscape:connector-curvature="0" />
      <path
         style="display:inline;opacity:1;fill:#bdbdbd;fill-opacity:1;stroke:none;stroke-width:1.42554712;stroke-miterlimit:1.29999995;stroke-dasharray:none;stroke-opacity:1"
         d="m 150.69322,276.34519 a 8.0187019,8.0187019 0 0 1 -8.0187,8.0187 8.0187019,8.0187019 0 0 1 -8.0187,-8.0187 8.0187019,8.0187019 0 0 1 8.0187,-8.0187 8.0187019,8.0187019 0 0 1 8.0187,8.0187 z"
         id="path8121-8-8-7"
         inkscape:connector-curvature="0" />
      <path
         style="display:inline;opacity:1;fill:#424242;fill-opacity:1;stroke:none;stroke-width:0.47518238;stroke-miterlimit:1.29999995;stroke-dasharray:none;stroke-opacity:1"
         d="m 145.34742,276.34519 a 2.6729007,2.6729007 0 0 1 -2.6729,2.6729 2.6729007,2.6729007 0 0 1 -2.6729,-2.6729 2.6729007,2.6729007 0 0 1 2.6729,-2.6729 2.6729007,2.6729007 0 0 1 2.6729,2.6729 z"
         id="path8121-8-8-8-8"
         inkscape:connector-curvature="0" />
      <path
         style="display:inline;opacity:1;fill:#fafafa;fill-opacity:1;stroke:none;stroke-width:1.82153249;stroke-miterlimit:1.29999995;stroke-dasharray:none;stroke-opacity:1"
         d="m 123.37928,276.34519 a 10.24612,10.24612 0 0 1 -10.24612,10.24612 10.24612,10.24612 0 0 1 -10.24613,-10.24612 10.24612,10.24612 0 0 1 10.24613,-10.24612 10.24612,10.24612 0 0 1 10.24612,10.24612 z"
         id="circle8487"
         inkscape:connector-curvature="0" />
      <path
         style="display:inline;opacity:1;fill:#bdbdbd;fill-opacity:1;stroke:none;stroke-width:1.42554712;stroke-miterlimit:1.29999995;stroke-dasharray:none;stroke-opacity:1"
         d="m 121.15186,276.34519 a 8.0187019,8.0187019 0 0 1 -8.0187,8.0187 8.0187019,8.0187019 0 0 1 -8.01871,-8.0187 8.0187019,8.0187019 0 0 1 8.01871,-8.0187 8.0187019,8.0187019 0 0 1 8.0187,8.0187 z"
         id="circle8489"
         inkscape:connector-curvature="0" />
      <path
         style="display:inline;opacity:1;fill:#424242;fill-opacity:1;stroke:none;stroke-width:0.47518238;stroke-miterlimit:1.29999995;stroke-dasharray:none;stroke-opacity:1"
         d="m 115.80606,276.34519 a 2.6729007,2.6729007 0 0 1 -2.6729,2.6729 2.6729007,2.6729007 0 0 1 -2.6729,-2.6729 2.6729007,2.6729007 0 0 1 2.6729,-2.6729 2.6729007,2.6729007 0 0 1 2.6729,2.6729 z"
         id="circle8491"
         inkscape:connector-curvature="0" />
      <path
         style="display:inline;opacity:1;fill:#fafafa;fill-opacity:1;stroke:none;stroke-width:1.82153249;stroke-miterlimit:1.29999995;stroke-dasharray:none;stroke-opacity:1"
         d="M 93.837936,276.34519 A 10.24612,10.24612 0 0 1 83.591811,286.59131 10.24612,10.24612 0 0 1 73.345686,276.34519 10.24612,10.24612 0 0 1 83.591811,266.09907 10.24612,10.24612 0 0 1 93.837936,276.34519 Z"
         id="circle8495"
         inkscape:connector-curvature="0" />
      <path
         style="display:inline;opacity:1;fill:#bdbdbd;fill-opacity:1;stroke:none;stroke-width:1.42554712;stroke-miterlimit:1.29999995;stroke-dasharray:none;stroke-opacity:1"
         d="m 91.610513,276.34519 a 8.0187019,8.0187019 0 0 1 -8.018702,8.0187 8.0187019,8.0187019 0 0 1 -8.018702,-8.0187 8.0187019,8.0187019 0 0 1 8.018702,-8.0187 8.0187019,8.0187019 0 0 1 8.018702,8.0187 z"
         id="circle8497"
         inkscape:connector-curvature="0" />
      <path
         style="display:inline;opacity:1;fill:#424242;fill-opacity:1;stroke:none;stroke-width:0.47518238;stroke-miterlimit:1.29999995;stroke-dasharray:none;stroke-opacity:1"
         d="m 86.264712,276.34519 a 2.6729007,2.6729007 0 0 1 -2.672901,2.6729 2.6729007,2.6729007 0 0 1 -2.672901,-2.6729 2.6729007,2.6729007 0 0 1 2.672901,-2.6729 2.6729007,2.6729007 0 0 1 2.672901,2.6729 z"
         id="circle8499"
         inkscape:connector-curvature="0" />
    </g>
  </g>
</svg>
